<?xml version="1.0" encoding="UTF-8"?><svg id="Layer_1" xmlns="http://www.w3.org/2000/svg" viewBox="0 0 232.5 266.53"><rect x="0" y="3.79" width="16" height="262.5" rx="8" ry="8"/><path d="m112.12,209.48h0c-1.4-3.01-.49-6.57,2.17-8.55,11.98-8.92,36.37-34.08,45.89-65.52,7.18-23.72,4.43-46.25-8.17-66.98-18.13-29.83-47.53-47.62-87.37-52.88-21.08-2.79-39.55-1.16-48.84.08-3.62.49-6.99-1.92-7.73-5.5v-.06c-.84-3.97,1.88-7.79,5.9-8.33,10.19-1.38,29.85-3.07,52.51-.07,43.63,5.77,77.35,26.34,97.5,59.49,14.75,24.27,17.99,50.62,9.6,78.31-10.41,34.37-36.18,61.63-51,72.67-3.53,2.63-8.6,1.33-10.46-2.66Z"/><path d="m83.5,116.79c-9.65,0-17.5-7.18-17.5-16s7.85-16,17.5-16,17.5,7.18,17.5,16-7.85,16-17.5,16Zm0-23c-4.69,0-8.5,3.14-8.5,7s3.81,7,8.5,7,8.5-3.14,8.5-7-3.81-7-8.5-7Z"/><path d="m215,116.29c-9.65,0-17.5-7.18-17.5-16s7.85-16,17.5-16,17.5,7.18,17.5,16-7.85,16-17.5,16Zm0-23c-4.69,0-8.5,3.14-8.5,7s3.81,7,8.5,7,8.5-3.14,8.5-7-3.81-7-8.5-7Z"/><path d="m7.22,266.29c-1.77-.33-3.2-1.56-3.02-3.35l.62-5.95c.16-1.53,1.43-2.67,2.97-2.72.6-.02,1.19-.06,1.73-.11,1.39-.15,2.49-1.26,2.65-2.66.16-1.34.33-2.93.48-4.43,2.45-23.02,7.02-65.86,29.3-67.89,4.31-.39,8.49,1.04,12.07,4.15,4.33,3.75,7.77,10.12,10.49,17.61.96,2.64,4.7,2.69,5.68.06,2.63-7.07,5.92-12.23,9.9-15.59,4.45-3.75,9.78-5.18,15.43-4.15,3.17.54,24.97,6.31,24.97,61.91v.35c.38,2.39,1.29,3.34,2,3.78,1.66,1.03,4.48.63,8.23.11.55-.08,1.54-.22,2.64.2,1.05.41,1.73,1.15,2.13,1.68.28.38.78,1.01,1,2,.19.86.09,1.59,0,2-.32,3.26-1.74,4.93-2.4,5.59-3.76,3.75-10.31,1.96-12.62,1.41-2.5-.59-4.7-1.72-6.63-3.15-6.32-4.71-6.41-12.45-6.36-14.1-.03-43.21-13.53-49.4-15.04-49.95h-.25s.18-.03.18-.03c-.01,0-.02,0-.03-.01-2.11-.38-3.82.09-5.52,1.53-9.72,8.19-13.26,40.28-13.35,60.58,0,1.63-.99,3.13-2.93,3.02-.02,0-3.03.11-3.06.11-.02,0-3.02.09-3.04.09-1.96-.09-2.99-.85-3.13-2.82-1.45-21.36-6.82-55.08-16.15-63.16-1.44-1.25-2.44-1.34-3.13-1.27-4.51.41-9.06,7.86-12.46,20.44-3.42,12.64-5.03,27.74-5.99,36.77-.64,6.03-.76,7.01-1.39,9.7-1.7,7.25-10.7,9.25-15.98,8.25Zm87.16-73.24h.02s0,0,0,0c0,0-.02,0-.03,0Z"/></svg>